<?xml version="1.0" encoding="UTF-8" standalone="no"?>
<!-- Created with Inkscape (http://www.inkscape.org/) -->

<svg
   width="1.9102389in"
   height="1.9101919in"
   viewBox="0 0 183.38293 183.37843"
   version="1.1"
   id="svg1"
   xml:space="preserve"
   xmlns="http://www.w3.org/2000/svg"
   xmlns:svg="http://www.w3.org/2000/svg"><defs
     id="defs1" /><g
     id="g1"
     transform="matrix(0.73927081,0,0,0.73927081,-209.93089,-30.865552)"
     style="stroke-width:1.35268"><path
       id="path971"
       style="color:#000000;fill:#ffffff;fill-opacity:1;stroke:none;stroke-width:23.8075;stroke-linecap:round;stroke-linejoin:round;-inkscape-stroke:none;paint-order:fill markers stroke"
       d="m 407.8296,41.751331 c -1.69115,0.0043 -3.38041,0.125167 -5.05506,0.360817 a 4.0748337,4.0748337 0 0 0 -0.13656,0.02174 c -0.5522,0.0969 -1.10224,0.206363 -1.64948,0.328259 l 0.2035,-0.03981 c -1.11333,0.189197 -2.21747,0.429608 -3.3088,0.719829 a 4.0748337,4.0748337 0 0 0 -0.15739,0.04529 c -0.60767,0.18811 -1.20958,0.39484 -1.80679,0.614028 -0.95097,0.312352 -1.88986,0.660575 -2.81233,1.048986 a 4.0748337,4.0748337 0 0 0 -0.11401,0.05068 c -0.63059,0.288406 -1.25215,0.595364 -1.86551,0.91876 -0.85942,0.427313 -1.70306,0.887135 -2.52666,1.379968 a 4.0748337,4.0748337 0 0 0 -0.0695,0.04255 c -0.61235,0.383462 -1.21255,0.785879 -1.80137,1.204529 -0.78257,0.540075 -1.54466,1.109472 -2.28331,1.708227 a 4.0748337,4.0748337 0 0 0 -0.028,0.02252 c -0.56809,0.468827 -1.12227,0.954949 -1.6613,1.45684 0,7.36e-4 0,0.0026 0,0.0034 0,0.0026 0,0.0034 -0.009,0.006 -0.6949,0.64353 -1.36489,1.313506 -2.00837,2.008456 0,0.0026 0,0.0043 -0.009,0.0077 v 0.0017 c -0.50187,0.539296 -0.98724,1.092889 -1.456,1.661199 a 4.0748337,4.0748337 0 0 0 -0.0207,0.02526 c -0.27241,0.335784 -0.5163,0.693057 -0.7768,1.03813 -10.5491,-4.377514 -22.60923,-3.707358 -32.62272,2.059096 a 4.0748337,4.0748337 0 0 0 -0.01,0.0043 c -10.03825,5.813894 -16.6551,15.98038 -18.10227,27.354322 -11.32689,1.481659 -21.43862,8.092123 -27.22852,18.094193 a 4.0748337,4.0748337 0 0 0 -0.009,0.009 c -5.78657,10.05401 -6.43393,22.16746 -2.00035,32.74119 -9.06803,6.94662 -14.52068,17.72739 -14.53394,29.28403 a 4.0748337,4.0748337 0 0 0 0,0.01 c 0.0153,11.60048 5.51218,22.41431 14.63884,29.35459 -4.37964,10.55007 -3.71063,22.61236 2.05637,32.62723 a 4.0748337,4.0748337 0 0 0 0.009,0.01 c 5.81372,10.03803 15.97984,16.65493 27.35336,18.10232 1.48189,11.32705 8.0927,21.43886 18.09511,27.22855 a 4.0748337,4.0748337 0 0 0 0.009,0.005 c 10.054,5.7866 22.16753,6.4339 32.74116,2.00031 6.94672,9.06803 17.72745,14.52074 29.28409,14.53394 a 4.0748337,4.0748337 0 0 0 0.01,0 c 11.59974,-0.0161 22.41358,-5.51206 29.35363,-14.63794 10.55027,4.38025 22.61292,3.71165 32.62814,-2.05548 a 4.0748337,4.0748337 0 0 0 0.009,-0.003 c 10.05165,-5.80727 16.68185,-15.97644 18.13497,-27.35787 11.31625,-1.49 21.41644,-8.09915 27.20048,-18.0933 a 4.0748337,4.0748337 0 0 0 0,-0.005 c 5.80127,-10.05498 6.45783,-22.17703 2.02561,-32.76016 9.05513,-6.94838 14.49821,-17.72165 14.51048,-29.26867 a 4.0748337,4.0748337 0 0 0 0,-7.5e-4 4.0748337,4.0748337 0 0 0 0,-7.5e-4 4.0748337,4.0748337 0 0 0 0,-7.4e-4 4.0748337,4.0748337 0 0 0 0,-7.5e-4 4.0748337,4.0748337 0 0 0 0,-7.4e-4 4.0748337,4.0748337 0 0 0 0,-7.6e-4 4.0748337,4.0748337 0 0 0 0,-7.3e-4 4.0748337,4.0748337 0 0 0 0,-7.5e-4 4.0748337,4.0748337 0 0 0 0,-7.5e-4 4.0748337,4.0748337 0 0 0 0,-7.4e-4 4.0748337,4.0748337 0 0 0 0,-7.5e-4 c -0.0153,-11.59319 -5.5046,-22.40135 -14.6217,-29.34281 4.37892,-10.55743 3.70395,-22.6268 -2.0745,-32.64261 a 4.0748337,4.0748337 0 0 0 0,-0.005 C 509.52373,93.59252 499.36653,86.976842 488.00085,85.523724 486.51445,74.191027 479.89472,64.076295 469.8823,58.291544 a 4.0748337,4.0748337 0 0 0 -0.009,-0.0034 c -10.03099,-5.773766 -22.11313,-6.433511 -32.67071,-2.032864 -0.0397,-0.05068 -0.0785,-0.101538 -0.11843,-0.151946 -1.91161,-2.468286 -4.12772,-4.684353 -6.59603,-6.595972 -0.0668,-0.05265 -0.13421,-0.105091 -0.20159,-0.15734 a 4.0748337,4.0748337 0 0 0 -0.0271,-0.02081 c -1.21678,-0.926867 -2.48959,-1.777257 -3.81165,-2.54651 a 4.0748337,4.0748337 0 0 0 -0.0199,-0.01173 c -0.0785,-0.04529 -0.15785,-0.09011 -0.23696,-0.134738 -2.7086,-1.547599 -5.6022,-2.747 -8.6117,-3.568383 h -7.2e-4 c -0.0875,-0.02423 -0.17409,-0.04769 -0.26131,-0.07131 a 4.0748337,4.0748337 0 0 0 -0.0271,-0.0077 c -1.4734,-0.389053 -2.96891,-0.687123 -4.47903,-0.891645 a 4.0748337,4.0748337 0 0 0 -0.0243,-0.0026 c -0.0948,-0.01216 -0.18906,-0.02474 -0.28395,-0.03613 l -0.009,-7.53e-4 c -1.53943,-0.198212 -3.0896,-0.299484 -4.64176,-0.302926 a 4.0748337,4.0748337 0 0 0 -0.0199,0 z m -30.26068,15.842473 c -0.01,0.01387 -0.0189,0.0286 -0.0289,0.04255 -0.009,0.0077 -0.0108,0.01361 -0.0153,0.0208 z" /><g
       id="g1001"
       transform="matrix(0.45572912,0,0,0.45572912,105.00202,-5.0364291)"
       style="stroke-width:2.96819"><path
         id="path973"
         style="fill:#d13326;stroke-width:52.2397;stroke-linecap:round;stroke-linejoin:round;paint-order:fill markers stroke;stop-color:#000000"
         d="m 735.61913,186.84096 a 71.099663,71.099663 0 0 1 -71.09966,71.09966 71.099663,71.099663 0 0 1 -71.09966,-71.09966 71.099663,71.099663 0 0 1 71.09966,-71.09967 71.099663,71.099663 0 0 1 71.09966,71.09967 z" /><path
         id="path975"
         style="fill:#d13326;fill-opacity:1;stroke-width:52.2397;stroke-linecap:round;stroke-linejoin:round;paint-order:fill markers stroke;stop-color:#000000"
         d="m 664.51953,115.74219 a 71.099663,71.099663 0 0 1 71.09961,71.09961 71.099663,71.099663 0 0 1 -71.09961,71.09961 z" /><path
         id="path977"
         style="fill:#dd7a2b;stroke-width:52.2397;stroke-linecap:round;stroke-linejoin:round;paint-order:fill markers stroke;stop-color:#000000"
         d="m 833.95116,-195.80663 a 71.099663,71.099663 0 0 1 -71.09966,71.09967 71.099663,71.099663 0 0 1 -71.09966,-71.09967 71.099663,71.099663 0 0 1 71.09966,-71.09966 71.099663,71.099663 0 0 1 71.09966,71.09966 z"
         transform="rotate(30)" /><path
         id="path979"
         style="fill:#f3e82b;stroke-width:52.2397;stroke-linecap:round;stroke-linejoin:round;paint-order:fill markers stroke;stop-color:#000000"
         d="m 727.78545,-576.35516 a 71.099663,71.099663 0 0 1 -71.09966,71.09966 71.099663,71.099663 0 0 1 -71.09966,-71.09966 71.099663,71.099663 0 0 1 71.09966,-71.09967 71.099663,71.099663 0 0 1 71.09966,71.09967 z"
         transform="rotate(60)" /><path
         id="path981"
         style="fill:#b5d67b;stroke-width:52.2397;stroke-linecap:round;stroke-linejoin:round;paint-order:fill markers stroke;stop-color:#000000"
         d="m 445.56893,-852.83704 a 71.099663,71.099663 0 0 1 -71.09966,71.09967 71.099663,71.099663 0 0 1 -71.09966,-71.09967 71.099663,71.099663 0 0 1 71.09966,-71.09966 71.099663,71.099663 0 0 1 71.09966,71.09966 z"
         transform="rotate(90)" /><path
         id="path983"
         style="fill:#8bbf37;stroke-width:52.2397;stroke-linecap:round;stroke-linejoin:round;paint-order:fill markers stroke;stop-color:#000000"
         d="m 62.92135,-951.16907 a 71.099663,71.099663 0 0 1 -71.0996633,71.09967 71.099663,71.099663 0 0 1 -71.0996627,-71.09967 71.099663,71.099663 0 0 1 71.0996627,-71.09963 71.099663,71.099663 0 0 1 71.0996633,71.09963 z"
         transform="rotate(120)" /><path
         id="path985"
         style="fill:#0d9543;stroke-width:52.2397;stroke-linecap:round;stroke-linejoin:round;paint-order:fill markers stroke;stop-color:#000000"
         d="m -317.6272,-845.00336 a 71.099663,71.099663 0 0 1 -71.09967,71.09967 71.099663,71.099663 0 0 1 -71.09966,-71.09967 71.099663,71.099663 0 0 1 71.09966,-71.09966 71.099663,71.099663 0 0 1 71.09967,71.09966 z"
         transform="rotate(150)" /><path
         id="path987"
         style="fill:#7ebee1;stroke-width:52.2397;stroke-linecap:round;stroke-linejoin:round;paint-order:fill markers stroke;stop-color:#000000"
         d="m -594.10908,-562.78687 a 71.099663,71.099663 0 0 1 -71.09966,71.09967 71.099663,71.099663 0 0 1 -71.09966,-71.09967 71.099663,71.099663 0 0 1 71.09966,-71.09966 71.099663,71.099663 0 0 1 71.09966,71.09966 z"
         transform="scale(-1)" /><path
         id="path989"
         style="fill:#1f7fbb;stroke-width:52.2397;stroke-linecap:round;stroke-linejoin:round;paint-order:fill markers stroke;stop-color:#000000"
         d="m -692.44111,-180.13925 a 71.099663,71.099663 0 0 1 -71.09966,71.09966 71.099663,71.099663 0 0 1 -71.09966,-71.09966 71.099663,71.099663 0 0 1 71.09966,-71.09966 71.099663,71.099663 0 0 1 71.09966,71.09966 z"
         transform="rotate(-150)" /><path
         id="path991"
         style="fill:#382173;stroke-width:52.2397;stroke-linecap:round;stroke-linejoin:round;paint-order:fill markers stroke;stop-color:#000000"
         d="m -586.27534,200.4093 a 71.099663,71.099663 0 0 1 -71.09966,71.09966 71.099663,71.099663 0 0 1 -71.09966,-71.09966 71.099663,71.099663 0 0 1 71.09966,-71.09966 71.099663,71.099663 0 0 1 71.09966,71.09966 z"
         transform="rotate(-120)" /><path
         id="path993"
         style="fill:#6c649f;stroke-width:52.2397;stroke-linecap:round;stroke-linejoin:round;paint-order:fill markers stroke;stop-color:#000000"
         d="m -304.05885,476.89114 a 71.099663,71.099663 0 0 1 -71.09966,71.09967 71.099663,71.099663 0 0 1 -71.09966,-71.09967 71.099663,71.099663 0 0 1 71.09966,-71.09966 71.099663,71.099663 0 0 1 71.09966,71.09966 z"
         transform="rotate(-90)" /><path
         id="path995"
         style="fill:#922b7a;stroke-width:52.2397;stroke-linecap:round;stroke-linejoin:round;paint-order:fill markers stroke;stop-color:#000000"
         d="M 78.588729,575.22321 A 71.099663,71.099663 0 0 1 7.4890666,646.32287 71.099663,71.099663 0 0 1 -63.610596,575.22321 71.099663,71.099663 0 0 1 7.4890666,504.12354 71.099663,71.099663 0 0 1 78.588729,575.22321 Z"
         transform="rotate(-60)" /><path
         id="path997"
         style="fill:#95574a;stroke-width:52.2397;stroke-linecap:round;stroke-linejoin:round;paint-order:fill markers stroke;stop-color:#000000"
         d="m 459.13729,469.05746 a 71.099663,71.099663 0 0 1 -71.09966,71.09967 71.099663,71.099663 0 0 1 -71.09966,-71.09967 71.099663,71.099663 0 0 1 71.09966,-71.09966 71.099663,71.099663 0 0 1 71.09966,71.09966 z"
         transform="rotate(-30)" /><path
         id="path999"
         style="fill:#d13326;fill-opacity:1;stroke-width:52.2397;stroke-linecap:round;stroke-linejoin:round;paint-order:fill markers stroke;stop-color:#000000"
         d="m 664.51953,115.74219 a 71.099663,71.099663 0 0 0 -71.09961,71.09961 71.099663,71.099663 0 0 0 71.09961,71.09961 z" /></g><path
       id="path1003"
       style="fill:#ffffff;stroke-width:23.8075;stroke-linecap:round;stroke-linejoin:round;paint-order:fill markers stroke;stop-color:#000000"
       d="m 492.44738,165.85186 a 84.604487,84.604487 0 0 1 -84.60452,84.60448 84.604487,84.604487 0 0 1 -84.60444,-84.60448 84.604487,84.604487 0 0 1 84.60444,-84.604484 84.604487,84.604487 0 0 1 84.60452,84.604484 z" /><g
       id="g1019"
       style="fill:#7ebee1;fill-opacity:1;stroke-width:2.96819"
       transform="matrix(0.45572912,0,0,0.45572912,105.00202,-5.0364291)"><path
         style="color:#000000;fill:#7ebee1;fill-opacity:1;stroke-width:2.96819;stroke-linecap:round;stroke-linejoin:round;-inkscape-stroke:none;paint-order:fill markers stroke"
         d="m 664.51953,200.91016 c -96.07543,0 -174.06835,77.99293 -174.06836,174.06836 0,96.07543 77.99293,174.0664 174.06836,174.0664 96.07544,0 174.06641,-77.99097 174.06641,-174.0664 -1e-5,-96.07543 -77.99098,-174.06836 -174.06641,-174.06836 z m 0,10 c 90.67104,0 164.0664,73.39732 164.06641,164.06836 0,90.67103 -73.39537,164.0664 -164.06641,164.0664 -90.67104,0 -164.06836,-73.39537 -164.06836,-164.0664 1e-5,-90.67104 73.39733,-164.06836 164.06836,-164.06836 z"
         id="path1005" /><path
         style="color:#000000;fill:#7ebee1;fill-opacity:1;stroke-width:2.96819;stroke-linecap:round;stroke-linejoin:round;-inkscape-stroke:none;paint-order:fill markers stroke"
         d="m 664.51953,200.91016 a 5,5 0 0 0 -5,5 v 338.13476 a 5,5 0 0 0 5,5 5,5 0 0 0 5,-5 V 205.91016 a 5,5 0 0 0 -5,-5 z"
         id="path1007" /><path
         style="color:#000000;fill:#7ebee1;fill-opacity:1;stroke-width:2.96819;stroke-linecap:round;stroke-linejoin:round;-inkscape-stroke:none;paint-order:fill markers stroke"
         d="m 662.74219,201.23633 c -69.34536,26.35814 -114.08594,95.79381 -114.08594,173.74219 0,77.89277 44.81462,147.33362 114.08203,173.73828 a 5,5 0 0 0 6.45313,-2.89063 5,5 0 0 0 -2.89063,-6.45312 c -65.15411,-24.83667 -107.64453,-90.3321 -107.64453,-164.39453 0,-74.12771 42.41343,-139.60171 107.64062,-164.39454 a 5,5 0 0 0 2.89649,-6.44921 5,5 0 0 0 -6.45117,-2.89844 z"
         id="path1009" /><path
         style="color:#000000;fill:#7ebee1;fill-opacity:1;stroke-width:2.96819;stroke-linecap:round;stroke-linejoin:round;-inkscape-stroke:none;paint-order:fill markers stroke"
         d="m 495.45117,369.97852 a 5,5 0 0 0 -5,5 5,5 0 0 0 5,5 h 338.13477 a 5,5 0 0 0 5,-5 5,5 0 0 0 -5,-5 z"
         id="path1011" /><path
         style="color:#000000;fill:#7ebee1;fill-opacity:1;stroke-width:2.96819;stroke-linecap:round;stroke-linejoin:round;-inkscape-stroke:none;paint-order:fill markers stroke"
         d="m 517.53516,286.43359 a 5,5 0 0 0 -5,5 5,5 0 0 0 5,5 h 293.96875 a 5,5 0 0 0 5,-5 5,5 0 0 0 -5,-5 z"
         id="path1013" /><path
         style="color:#000000;fill:#7ebee1;fill-opacity:1;stroke-width:2.96819;stroke-linecap:round;stroke-linejoin:round;-inkscape-stroke:none;paint-order:fill markers stroke"
         d="m 517.53516,453.52148 a 5,5 0 0 0 -5,5 5,5 0 0 0 5,5 h 293.96875 a 5,5 0 0 0 5,-5 5,5 0 0 0 -5,-5 z"
         id="path1015" /><path
         style="color:#000000;fill:#7ebee1;fill-opacity:1;stroke-width:2.96819;stroke-linecap:round;stroke-linejoin:round;-inkscape-stroke:none;paint-order:fill markers stroke"
         d="m 666.29687,201.23633 a 5,5 0 0 0 -6.45117,2.89844 5,5 0 0 0 2.89649,6.44921 c 65.22719,24.79283 107.64062,90.26682 107.64062,164.39454 0,74.06243 -42.49041,139.55786 -107.64453,164.39453 a 5,5 0 0 0 -2.89062,6.45312 5,5 0 0 0 6.45312,2.89063 c 69.26742,-26.40466 114.08203,-95.84551 114.08203,-173.73828 0,-77.94838 -44.74058,-147.38405 -114.08594,-173.74219 z"
         id="path1017" /></g></g></svg>
